name analog
datacolumns 19
datarows 23
range 0.594 0.605
endheader
time	ground_force_vx	ground_force_vy	ground_force_vz	ground_force_px	ground_force_py	ground_force_pz	l_ground_force_vx	l_ground_force_vy	l_ground_force_vz	l_ground_force_px	l_ground_force_py	l_ground_force_pz	ground_torque_x	ground_torque_y	ground_torque_z	l_ground_torque_x	l_ground_torque_y	l_ground_torque_z
0.594	-0.0	-0.0	-0.0	1.4885424375534058	45.35040283203125	-566.9849853515625	-11.700161933898926	-58.42960739135742	-556.236572265625	-0.0	-0.0	-0.0	-0.0	-0.0	-0.0	134663.359375	7147.1298828125	-5092.48193359375
0.5945	-0.0	-0.0	-0.0	-3.03885269165039	45.46192169189453	-541.556884765625	-10.87193775177002	-59.577823638916016	-553.5224609375	-0.0	-0.0	-0.0	-0.0	-0.0	-0.0	133507.1875	6733.265625	-4594.38134765625
0.595	-0.0	-0.0	-0.0	-7.443438529968262	45.27312088012695	-522.9742431640625	-8.733065605163574	-60.62791442871094	-551.0001831054688	-0.0	-0.0	-0.0	-0.0	-0.0	-0.0	132895.859375	6049.6162109375	-3657.109375
0.5955	-0.0	-0.0	-0.0	-11.089625358581545	44.52632522583008	-502.3308410644531	-5.569430351257324	-61.25606918334961	-552.0874633789062	-0.0	-0.0	-0.0	-0.0	-0.0	-0.0	132726.234375	5210.345703125	-2531.1484375
0.596	-0.0	-0.0	-0.0	-12.80746364593506	43.01548385620117	-488.38519287109375	-1.8045848608016968	-62.0800666809082	-550.9613037109375	-0.0	-0.0	-0.0	-0.0	-0.0	-0.0	132653.3125	4526.0576171875	-1111.6368408203125
0.5965	-0.0	-0.0	-0.0	-12.539887428283691	41.840919494628906	-477.499267578125	1.6957380771636963	-62.09014892578125	-550.7665405273438	-0.0	-0.0	-0.0	-0.0	-0.0	-0.0	132675.296875	3744.126708984375	-31.107852935791016
0.597	-0.0	-0.0	-0.0	-10.814387321472168	40.85688781738281	-467.9958190917969	4.839909076690674	-61.5006103515625	-550.4171752929688	-0.0	-0.0	-0.0	-0.0	-0.0	-0.0	132290.71875	3050.877685546875	963.2756958007812
0.5975	-0.0	-0.0	-0.0	-7.157642841339111	39.94230651855469	-461.1588439941406	7.352491855621338	-60.97333908081055	-548.8250122070312	-0.0	-0.0	-0.0	-0.0	-0.0	-0.0	132143.984375	2814.68017578125	1614.23974609375
0.598	-0.0	-0.0	-0.0	-3.4139246940612797	39.36900329589844	-453.8835754394531	8.683083534240723	-60.3909797668457	-546.3806762695312	-0.0	-0.0	-0.0	-0.0	-0.0	-0.0	131735.21875	2578.088623046875	2043.647705078125
0.5985	-0.0	-0.0	-0.0	0.1904940158128738	38.949989318847656	-448.7775268554688	9.392660140991213	-60.164642333984375	-545.7660522460938	-0.0	-0.0	-0.0	-0.0	-0.0	-0.0	131173.046875	2312.40478515625	2140.2548828125
0.599	-0.0	-0.0	-0.0	3.8115835189819336	39.54766845703125	-442.624267578125	9.758186340332031	-59.98122024536133	-543.6717529296875	-0.0	-0.0	-0.0	-0.0	-0.0	-0.0	130625.3828125	2313.6123046875	2268.583984375
0.5995	-0.0	-0.0	-0.0	6.959959506988525	40.14710235595703	-440.1048278808594	10.307523727416992	-59.83251190185547	-540.7257690429688	-0.0	-0.0	-0.0	-0.0	-0.0	-0.0	130297.6953125	2310.62158203125	2431.883056640625
0.6	-0.0	-0.0	-0.0	9.712629318237305	40.7066535949707	-433.7541809082031	10.656328201293944	-59.78279495239258	-541.0321655273438	-0.0	-0.0	-0.0	-0.0	-0.0	-0.0	129894.625	1969.996337890625	2593.531982421875
0.6005	-0.0	-0.0	-0.0	12.375186920166016	41.05081558227539	-428.1504821777344	11.42140293121338	-59.26385498046875	-539.1339721679688	-0.0	-0.0	-0.0	-0.0	-0.0	-0.0	129526.3203125	1750.115478515625	2772.247314453125
0.601	-0.0	-0.0	-0.0	14.553960800170898	41.216156005859375	-422.8078002929688	11.609858512878418	-58.79489135742188	-536.9313354492188	-0.0	-0.0	-0.0	-0.0	-0.0	-0.0	129016.296875	1901.6455078125	2850.2578125
0.6015	-0.0	-0.0	-0.0	16.1217098236084	41.012786865234375	-417.7104797363281	11.282089233398438	-58.15414810180664	-531.7579345703125	-0.0	-0.0	-0.0	-0.0	-0.0	-0.0	127958.4140625	1914.8782958984373	2744.37451171875
0.602	-0.0	-0.0	-0.0	16.657079696655273	40.04481506347656	-412.6671447753906	9.692444801330566	-57.58573913574219	-527.4776611328125	-0.0	-0.0	-0.0	-0.0	-0.0	-0.0	126422.765625	2142.026123046875	2300.830322265625
0.6025	-0.0	-0.0	-0.0	16.835607528686523	39.3575439453125	-407.2164916992188	7.220241069793701	-57.2708625793457	-520.7670288085938	-0.0	-0.0	-0.0	-0.0	-0.0	-0.0	124675.7734375	2625.72412109375	1757.5306396484375
0.603	-0.0	-0.0	-0.0	16.503944396972656	38.97490310668945	-397.9299926757813	3.7107880115509033	-57.29744720458984	-514.74169921875	-0.0	-0.0	-0.0	-0.0	-0.0	-0.0	122873.4765625	3102.957763671875	987.70751953125
0.6035	-0.0	-0.0	-0.0	15.038581848144531	38.454833984375	-390.316162109375	0.3784947395324707	-56.86739730834961	-506.560791015625	-0.0	-0.0	-0.0	-0.0	-0.0	-0.0	120892.09375	3589.51171875	-48.78511428833008
0.604	-0.0	-0.0	-0.0	13.48202896118164	38.212379455566406	-380.48046875	-2.9035611152648926	-57.471099853515625	-499.1357421875	-0.0	-0.0	-0.0	-0.0	-0.0	-0.0	118704.265625	4145.12646484375	-839.2655639648438
0.6045	-0.0	-0.0	-0.0	11.392035484313965	37.39444351196289	-371.8116455078125	-6.401389598846436	-58.228004455566406	-493.3512573242188	-0.0	-0.0	-0.0	-0.0	-0.0	-0.0	116913.109375	4690.84716796875	-1574.6888427734375
0.605	-0.0	-0.0	-0.0	9.507681846618652	37.2051887512207	-362.8764343261719	-9.187629699707031	-58.84638977050781	-485.2177734375	-0.0	-0.0	-0.0	-0.0	-0.0	-0.0	115100.59375	4916.8330078125	-2199.760498046875
